<?xml version="1.0" encoding="UTF-8"?>
<svg width="32px" height="32px" viewBox="0 0 32 32" version="1.1" xmlns="http://www.w3.org/2000/svg" xmlns:xlink="http://www.w3.org/1999/xlink">
    <!-- Generator: Sketch 64 (93537) - https://sketch.com -->
    <title>Icon-Service/32/Amazon-ElastiCache</title>
    <desc>Created with Sketch.</desc>
    <g id="Icon-Service/32/Amazon-ElastiCache" stroke="none" stroke-width="1" fill="none" fill-rule="evenodd">
        <path d="M21,18.0361566 L21,15.1324721 C19.919,15.837028 18.128,16.2812261 16.016,16.2812261 C13.788,16.2812261 12.048,15.8827396 11,15.2040208 L11,18.0361566 C11,18.7635683 12.918,19.5496102 16.016,19.5496102 C19.136,19.5496102 21,18.7804617 21,18.0361566 L21,18.0361566 Z M21,22.155175 L21,19.5327167 C19.983,20.1706926 18.245,20.543342 16.016,20.543342 C13.771,20.543342 12.021,20.1696988 11,19.5297355 L11,22.155175 C11,22.8468124 12.786,23.8484941 16.016,23.8484941 C19.225,23.8484941 21,22.8468124 21,22.155175 L21,22.155175 Z M21,25.9641492 L21,23.7222902 C19.965,24.4188962 18.194,24.842226 16.016,24.842226 C13.822,24.842226 12.04,24.4169087 11,23.719309 L11,25.9641492 C11,26.6846048 12.904,28.0062682 16.016,28.0062682 C19.107,28.0062682 21,26.6846048 21,25.9641492 L21,25.9641492 Z M10.903,13.5047393 C10.903,14.3812108 12.815,15.2874943 16.016,15.2874943 C19.117,15.2874943 21.097,14.232151 21.097,13.5047393 C21.097,12.8498701 19.331,11.9425929 16.016,11.9425929 C12.849,11.9425929 10.903,12.8528512 10.903,13.5047393 L10.903,13.5047393 Z M22.097,13.5047393 C22.097,13.6776487 22.061,13.8455894 22,14.0075677 L22,25.9641492 C22,27.6097691 19.26,29 16.016,29 C12.755,29 10,27.6097691 10,25.9641492 L10,14.0343984 C9.943,13.8644703 9.903,13.6895735 9.903,13.5047393 C9.903,11.7488152 13.071,10.948861 16.016,10.948861 C19.043,10.948861 22.097,11.7388778 22.097,13.5047393 L22.097,13.5047393 Z M29.5,7.4717933 C29.776,7.4717933 30,7.2501911 30,6.97492738 L30,3.49686592 C30,3.22259593 29.776,3 29.5,3 L2.5,3 C2.224,3 2,3.22259593 2,3.49686592 L2,6.97492738 C2,7.2501911 2.224,7.4717933 2.5,7.4717933 C3.052,7.4717933 3.5,7.9179789 3.5,8.46552515 C3.5,9.0130714 3.052,9.45925699 2.5,9.45925699 C2.224,9.45925699 2,9.68185293 2,9.95612292 L2,19.3965754 C2,19.6718392 2.224,19.8934414 2.5,19.8934414 L4,19.8934414 L5,19.8934414 L8,19.8934414 L8,18.8997095 L5,18.8997095 L5,17.9059777 L8,17.9059777 L8,16.9122458 L4.5,16.9122458 C4.224,16.9122458 4,17.1348418 4,17.4091118 L4,18.8997095 L3,18.8997095 L3,10.3903837 C3.861,10.1687815 4.5,9.38969577 4.5,8.46552515 C4.5,7.54135453 3.861,6.76226877 3,6.5416603 L3,3.99373185 L29,3.99373185 L29,6.5416603 C28.139,6.76226877 27.5,7.54135453 27.5,8.46552515 C27.5,9.38969577 28.139,10.1687815 29,10.3903837 L29,18.8997095 L28,18.8997095 L28,17.4091118 C28,17.1348418 27.776,16.9122458 27.5,16.9122458 L24,16.9122458 L24,17.9059777 L27,17.9059777 L27,18.8997095 L24,18.8997095 L24,19.8934414 L27,19.8934414 L28,19.8934414 L29.5,19.8934414 C29.776,19.8934414 30,19.6718392 30,19.3965754 L30,9.95612292 C30,9.68185293 29.776,9.45925699 29.5,9.45925699 C28.948,9.45925699 28.5,9.0130714 28.5,8.46552515 C28.5,7.9179789 28.948,7.4717933 29.5,7.4717933 L29.5,7.4717933 Z M8.5,5.98119554 L6.5,5.98119554 C6.224,5.98119554 6,6.20379147 6,6.47806146 L6,14.4279162 C6,14.7031799 6.224,14.9247821 6.5,14.9247821 L8,14.9247821 L8,13.9310503 L7,13.9310503 L7,6.97492738 L8,6.97492738 L8,9.95612292 L9,9.95612292 L9,6.47806146 C9,6.20379147 8.776,5.98119554 8.5,5.98119554 L8.5,5.98119554 Z M24,13.9310503 L24,14.9247821 L25.5,14.9247821 C25.776,14.9247821 26,14.7031799 26,14.4279162 L26,6.47806146 C26,6.20379147 25.776,5.98119554 25.5,5.98119554 L23.5,5.98119554 C23.224,5.98119554 23,6.20379147 23,6.47806146 L23,9.95612292 L24,9.95612292 L24,6.97492738 L25,6.97492738 L25,13.9310503 L24,13.9310503 Z M21,8.96239107 L21,6.47806146 C21,6.20379147 20.776,5.98119554 20.5,5.98119554 L17.5,5.98119554 C17.224,5.98119554 17,6.20379147 17,6.47806146 L17,8.96239107 L18,8.96239107 L18,6.97492738 L20,6.97492738 L20,8.96239107 L21,8.96239107 Z M14,8.96239107 L14,6.97492738 L12,6.97492738 L12,8.96239107 L11,8.96239107 L11,6.47806146 C11,6.20379147 11.224,5.98119554 11.5,5.98119554 L14.5,5.98119554 C14.776,5.98119554 15,6.20379147 15,6.47806146 L15,8.96239107 L14,8.96239107 Z" id="Amazon-ElastiCache_Icon_32_Squid" fill="#232F3D"></path>
    </g>
</svg>