<svg height="29" viewBox="0 0 29 29" width="29" xmlns="http://www.w3.org/2000/svg"><path d="m109.0858 596.9052-1.955.459 1.53 1.717c-.114.226-.266.411-.459.553-.192.141-.408.229-.645.263l-1.191-2.057-1.19 2.057c-.238-.034-.453-.122-.647-.263-.192-.142-.345-.327-.459-.553l1.532-1.717-1.955-.459c-.024-.113-.036-.204-.036-.272 0-.385.149-.725.444-1.02l1.836.901-.239-2.193c.227-.102.465-.153.714-.153.261 0 .499.051.714.153l-.238 2.193 1.836-.901c.295.295.442.635.442 1.02 0 .068-.012.159-.034.272m-8.684 12.171c.807 0 1.702-.162 2.684-.484v1.034c-.91.41-1.826.616-2.75.616-1.701 0-2.992-.488-3.872-1.463-.88-.976-1.319-2.409-1.319-4.301 0-1.878.447-3.311 1.341-4.302.895-.989 2.192-1.484 3.894-1.484.909 0 1.768.176 2.574.528v1.034c-.806-.264-1.643-.396-2.509-.396-1.392 0-2.4.356-3.024 1.067s-.935 1.852-.935 3.421v.264c0 1.525.315 2.651.946 3.377s1.621 1.089 2.97 1.089m-9.402-21.076c5.304 0 9 1.581 9 3s-3.696 3-9 3-9-1.581-9-3 3.696-3 9-3m-.352 26.102c-5.096 0-8.648-1.615-8.648-3.065v-4.155c1.895 1.186 5.444 1.968 9.231 1.968.944 0 1.892-.048 2.82-.143l-.102-.995c-4.842.494-10.236-.496-11.949-2.074v-5.758c1.899 1.187 5.45 1.97 9.231 1.97.892 0 1.815-.05 2.82-.153l-.102-.995c-.97.099-1.86.148-2.718.148-4.01 0-7.825-.922-9.231-2.209v-5.828c1.729 1.429 5.442 2.187 9 2.187s7.272-.758 9-2.187v2.187h1v-4c0-2.598-5.152-4-10-4s-10 1.402-10 4v20.037c0 2.318 4.148 4.065 9.648 4.065 3.653 0 6.931-.815 8.556-2.127l-.629-.778c-1.432 1.157-4.545 1.905-7.927 1.905" fill="#232f3e" fill-rule="evenodd" transform="translate(-81 -587)"/></svg>